<svg xmlns="http://www.w3.org/2000/svg" xmlns:xlink="http://www.w3.org/1999/xlink" viewBox="0 0 1258.49 439.15"><defs><style>.cls-1{isolation:isolate;}.cls-2{fill:#00dac8;}.cls-15,.cls-3{fill:#0059cc;}.cls-4{fill:#00abd8;}.cls-5{opacity:0.2;}.cls-10,.cls-11,.cls-12,.cls-13,.cls-6,.cls-7,.cls-8,.cls-9{mix-blend-mode:multiply;}.cls-6{fill:url(#linear-gradient);}.cls-7{fill:url(#linear-gradient-2);}.cls-8{fill:url(#linear-gradient-3);}.cls-9{fill:url(#linear-gradient-4);}.cls-10{fill:url(#linear-gradient-5);}.cls-11{fill:url(#linear-gradient-6);}.cls-12{fill:url(#linear-gradient-7);}.cls-13{fill:url(#linear-gradient-8);}.cls-14{font-size:174.78px;fill:#00d5c4;font-family:Montserrat-ExtraBold, Montserrat;font-weight:800;}.cls-15{font-size:100.27px;}.cls-16{letter-spacing:-0.01em;}.cls-17{letter-spacing:0em;}</style><linearGradient id="linear-gradient" x1="77.71" y1="219.64" x2="386.96" y2="219.64" gradientUnits="userSpaceOnUse"><stop offset="0" stop-color="#fff"/><stop offset="0.11" stop-color="#fafafa"/><stop offset="0.23" stop-color="#ececec"/><stop offset="0.36" stop-color="#d5d5d5"/><stop offset="0.5" stop-color="#b5b5b5"/><stop offset="0.64" stop-color="#8c8c8c"/><stop offset="0.79" stop-color="#595959"/><stop offset="0.93" stop-color="#1e1e1e"/><stop offset="1"/></linearGradient><linearGradient id="linear-gradient-2" x1="4195.55" y1="992.93" x2="4195.55" y2="684.65" gradientTransform="translate(-574.28 4414.8) rotate(-90)" xlink:href="#linear-gradient"/><linearGradient id="linear-gradient-3" x1="4195.35" y1="940.42" x2="4195.35" y2="751.79" gradientTransform="translate(-574.28 4414.8) rotate(-90)" xlink:href="#linear-gradient"/><linearGradient id="linear-gradient-4" x1="132.64" y1="219.5" x2="276.39" y2="219.5" xlink:href="#linear-gradient"/><linearGradient id="linear-gradient-5" x1="4195.16" y1="1243.09" x2="4195.16" y2="932.81" gradientTransform="translate(-574.28 4414.8) rotate(-90)" xlink:href="#linear-gradient"/><linearGradient id="linear-gradient-6" x1="289.66" y1="219.48" x2="598.9" y2="219.48" xlink:href="#linear-gradient"/><linearGradient id="linear-gradient-7" x1="4195.35" y1="928.75" x2="4195.35" y2="1108.41" gradientTransform="translate(-574.28 4414.8) rotate(-90)" xlink:href="#linear-gradient"/><linearGradient id="linear-gradient-8" x1="400.22" y1="219.5" x2="543.97" y2="219.5" xlink:href="#linear-gradient"/></defs><g class="cls-1"><g id="Layer_1" data-name="Layer 1"><path class="cls-2" d="M387,233.08A15.25,15.25,0,0,1,382.4,244l-71.74,70.64c-53.21,52.39-139.78,52.39-193,0a132.92,132.92,0,0,1,0-190,138,138,0,0,1,193,0,15.24,15.24,0,0,1,0,21.79,15.82,15.82,0,0,1-22.13,0,106.32,106.32,0,0,0-148.72,0,102.44,102.44,0,0,0,0,146.45c41,40.37,107.71,40.37,148.72,0l71.74-70.65a15.82,15.82,0,0,1,22.13,0A15.23,15.23,0,0,1,387,233.08Z"/><path class="cls-3" d="M276.4,173.74a15.26,15.26,0,0,1-4.58,10.89,15.83,15.83,0,0,1-22.14,0,50.84,50.84,0,0,0-71,0,48.93,48.93,0,0,0,0,70,50.79,50.79,0,0,0,71,0,15.82,15.82,0,0,1,22.13,0,15.23,15.23,0,0,1,0,21.79,82.41,82.41,0,0,1-115.3,0,79.41,79.41,0,0,1,0-113.53c31.79-31.3,83.51-31.3,115.29,0A15.23,15.23,0,0,1,276.4,173.74Z"/><path class="cls-3" d="M598.9,219.61a132.47,132.47,0,0,1-40,95c-53.21,52.39-139.78,52.39-193,0a15.23,15.23,0,0,1,0-21.79,15.82,15.82,0,0,1,22.13,0c41,40.37,107.71,40.37,148.71,0a102.44,102.44,0,0,0,0-146.45,106.31,106.31,0,0,0-148.71,0L316.35,217a15.83,15.83,0,0,1-22.14,0,15.24,15.24,0,0,1,0-21.79L366,124.59c53.2-52.39,139.77-52.39,193,0A132.47,132.47,0,0,1,598.9,219.61Z"/><path class="cls-4" d="M544,219.61a79.12,79.12,0,0,1-23.88,56.76,82.4,82.4,0,0,1-115.29,0,15.24,15.24,0,0,1,0-21.79,15.82,15.82,0,0,1,22.13,0,50.79,50.79,0,0,0,71,0,48.93,48.93,0,0,0,0-70,50.84,50.84,0,0,0-71,0,15.82,15.82,0,0,1-22.13,0,15.24,15.24,0,0,1,0-21.79c31.79-31.3,83.51-31.3,115.29,0A79.13,79.13,0,0,1,544,219.61Z"/><g class="cls-5"><path class="cls-6" d="M382.4,244A15.23,15.23,0,0,0,387,233.67a57.1,57.1,0,0,0-32.28,15.85l-54,53.18c-47.1,46.39-123.82,47.73-171.27,1.69a117.69,117.69,0,0,1-.65-168.87c43-42.31,110.25-46.09,157.56-11.33a57.63,57.63,0,0,0,28.93,11.1,15.28,15.28,0,0,0-4.57-10.64,138,138,0,0,0-193,0,132.93,132.93,0,0,0,0,190c53.2,52.39,139.77,52.39,193,0Z"/><path class="cls-7" d="M128.74,135.33a117.69,117.69,0,0,0,.65,168.87c47.45,46,124.17,44.69,171.27-1.69l54-53.19A57.15,57.15,0,0,1,387,233.48c0-.18,0-.36,0-.53a15.25,15.25,0,0,0-4.59-10.9,15.82,15.82,0,0,0-22.13,0L288.53,292.7c-41,40.37-107.72,40.37-148.72,0a102.43,102.43,0,0,1,0-146.44,106.32,106.32,0,0,1,148.72,0,15.82,15.82,0,0,0,22.13,0,15.25,15.25,0,0,0,4.57-11.16A57.74,57.74,0,0,1,286.3,124C239,89.24,171.71,93,128.74,135.33Z"/></g><g class="cls-5"><path class="cls-8" d="M164.4,176.94a64.33,64.33,0,0,0,0,85A66.63,66.63,0,0,0,250,273.87a55.32,55.32,0,0,1,26.35-8.43,15.18,15.18,0,0,0-4.58-11,15.82,15.82,0,0,0-22.13,0,50.77,50.77,0,0,1-71,0,48.92,48.92,0,0,1,0-69.94,50.83,50.83,0,0,1,71,0,15.83,15.83,0,0,0,22.14,0,15.28,15.28,0,0,0,4.58-10.9c0-.05,0-.11,0-.16A55.32,55.32,0,0,1,250,165,66.63,66.63,0,0,0,164.4,176.94Z"/><path class="cls-9" d="M156.52,162.71a79.41,79.41,0,0,0,0,113.53,82.41,82.41,0,0,0,115.3,0,15.21,15.21,0,0,0,4.57-10.8A55.32,55.32,0,0,0,250,273.87,66.63,66.63,0,0,1,164.4,262a64.33,64.33,0,0,1,0-85A66.63,66.63,0,0,1,250,165a55.32,55.32,0,0,0,26.35,8.43,15.22,15.22,0,0,0-4.58-10.74C240,131.41,188.31,131.41,156.52,162.71Z"/></g><g class="cls-5"><path class="cls-10" d="M547.87,303.57a117.7,117.7,0,0,0-.65-168.88C499.77,88.65,423.05,90,376,136.38l-54,53.19a57.26,57.26,0,0,1-32.28,15.85,15.25,15.25,0,0,0,4.55,11.48,15.83,15.83,0,0,0,22.14,0l71.74-70.64a106.31,106.31,0,0,1,148.71,0,102.43,102.43,0,0,1,0,146.44c-41,40.37-107.71,40.37-148.71,0a15.82,15.82,0,0,0-22.13,0,15.23,15.23,0,0,0-4.58,11.09,57.77,57.77,0,0,1,28.94,11.11C437.63,349.65,504.9,345.88,547.87,303.57Z"/><path class="cls-11" d="M294.21,195.11a15.21,15.21,0,0,0-4.55,10.31,57.26,57.26,0,0,0,32.28-15.85l54-53.19c47.1-46.38,123.82-47.73,171.27-1.69a117.7,117.7,0,0,1,.65,168.88c-43,42.31-110.24,46.08-157.55,11.33a57.77,57.77,0,0,0-28.94-11.11A15.24,15.24,0,0,0,366,314.5c53.2,52.39,139.77,52.39,193,0a133,133,0,0,0,0-190c-53.21-52.39-139.78-52.39-193,0Z"/></g><g class="cls-5"><path class="cls-12" d="M512.67,219.48a48.74,48.74,0,0,1-14.71,35,50.77,50.77,0,0,1-71,0,15.82,15.82,0,0,0-22.13,0,15.26,15.26,0,0,0-4.58,11,55.29,55.29,0,0,1,26.35,8.43A66.64,66.64,0,0,0,512.22,262a64.35,64.35,0,0,0,0-85A66.64,66.64,0,0,0,426.57,165a55.25,55.25,0,0,1-26.35,8.43,15.24,15.24,0,0,0,4.58,11.06,15.82,15.82,0,0,0,22.13,0,50.83,50.83,0,0,1,71,0A48.74,48.74,0,0,1,512.67,219.48Z"/><path class="cls-13" d="M512.22,176.94a64.35,64.35,0,0,1,0,85,66.64,66.64,0,0,1-85.65,11.92,55.29,55.29,0,0,0-26.35-8.43,15.26,15.26,0,0,0,4.58,10.8,82.4,82.4,0,0,0,115.29,0,79.41,79.41,0,0,0,0-113.53c-31.78-31.3-83.5-31.3-115.29,0a15.27,15.27,0,0,0-4.58,10.74A55.25,55.25,0,0,0,426.57,165,66.64,66.64,0,0,1,512.22,176.94Z"/></g><text class="cls-14" transform="translate(636.39 230.28)">SCH<tspan class="cls-15"><tspan x="0" y="100.27">SER</tspan><tspan class="cls-16" x="206.46" y="100.27">V</tspan><tspan class="cls-17" x="281.77" y="100.27">ICES</tspan></tspan></text></g></g></svg>